<?xml version="1.0" encoding="UTF-8" standalone="no"?>
<svg
   xmlns:dc="http://purl.org/dc/elements/1.1/"
   xmlns:cc="http://creativecommons.org/ns#"
   xmlns:rdf="http://www.w3.org/1999/02/22-rdf-syntax-ns#"
   xmlns:svg="http://www.w3.org/2000/svg"
   xmlns="http://www.w3.org/2000/svg"
   xmlns:sodipodi="http://sodipodi.sourceforge.net/DTD/sodipodi-0.dtd"
   xmlns:inkscape="http://www.inkscape.org/namespaces/inkscape"
   width="180.12888mm"
   height="120.1239mm"
   viewBox="0 0 680.80206 454.0116"
   version="1.1"
   id="svg3805"
   sodipodi:docname="bottom.svg"
   inkscape:version="0.92.4 (5da689c313, 2019-01-14)">
  <metadata
     id="metadata3811">
    <rdf:RDF>
      <cc:Work
         rdf:about="">
        <dc:format>image/svg+xml</dc:format>
        <dc:type
           rdf:resource="http://purl.org/dc/dcmitype/StillImage" />
        <dc:title>Produce by Acme CAD Converter</dc:title>
      </cc:Work>
    </rdf:RDF>
  </metadata>
  <defs
     id="defs3809" />
  <sodipodi:namedview
     pagecolor="#ffffff"
     bordercolor="#666666"
     borderopacity="1"
     objecttolerance="10"
     gridtolerance="10"
     guidetolerance="10"
     inkscape:pageopacity="0"
     inkscape:pageshadow="2"
     inkscape:window-width="1920"
     inkscape:window-height="986"
     id="namedview3807"
     showgrid="false"
     units="mm"
     inkscape:zoom="0.63583333"
     inkscape:cx="229.02827"
     inkscape:cy="-43.248207"
     inkscape:window-x="-11"
     inkscape:window-y="-11"
     inkscape:window-maximized="1"
     inkscape:current-layer="svg3805" />
  <title
     id="title3763">Produce by Acme CAD Converter</title>
  <desc
     id="desc3765">Produce by Acme CAD Converter</desc>
  <path
     d="m 72.048495,0.234 v 211.65492 m 0,0 h 41.580745 m 0,0 V 0.234"
     id="path3767"
     inkscape:connector-curvature="0"
     style="fill:none;stroke:#f70000;stroke-width:0.46799999;stroke-miterlimit:4;stroke-dasharray:none;stroke-opacity:1" />
  <path
     d="m 608.75357,0.234 v 211.65492 m 0,0 h -41.58075 m 0,0 V 0.234"
     id="path3769"
     inkscape:connector-curvature="0"
     style="fill:none;stroke:#f70000;stroke-width:0.46799999;stroke-miterlimit:4;stroke-dasharray:none;stroke-opacity:1" />
  <path
     d="M 680.56807,0.234 H 0.234"
     id="path3779"
     inkscape:connector-curvature="0"
     style="fill:none;stroke:#f70000;stroke-width:0.46799999;stroke-miterlimit:4;stroke-dasharray:none;stroke-opacity:1" />
  <path
     d="M 0.234,0.234 V 453.7776"
     id="path3781"
     inkscape:connector-curvature="0"
     style="fill:none;stroke:#f70000;stroke-width:0.46799999;stroke-miterlimit:4;stroke-dasharray:none;stroke-opacity:1" />
  <path
     d="M 0.234,453.7776 H 680.56807"
     id="path3783"
     inkscape:connector-curvature="0"
     style="fill:none;stroke:#f70000;stroke-width:0.46799999;stroke-miterlimit:4;stroke-dasharray:none;stroke-opacity:1" />
  <path
     d="M 680.56807,453.7776 V 0.234"
     id="path3785"
     inkscape:connector-curvature="0"
     style="fill:none;stroke:#f70000;stroke-width:0.46799999;stroke-miterlimit:4;stroke-dasharray:none;stroke-opacity:1" />
  <path
     d="m 631.42888,38.02618 0.18709,-2.02057 m 0,0 0.53321,-1.96444 m 0,0 0.88867,-1.83349 m 0,0 1.18803,-1.64639 m 0,0 1.46865,-1.40317 m 0,0 1.70252,-1.11319 m 0,0 1.8709,-0.80449 m 0,0 1.98315,-0.44901 m 0,0 2.02993,-0.0935 m 0,0 2.01122,0.27128 m 0,0 1.93638,0.62675 m 0,0 1.78671,0.96352 m 0,0 1.59026,1.27221 m 0,0 1.3377,1.53414 m 0,0 1.03835,1.73994 m 0,0 0.72029,1.90831 m 0,0 0.35548,1.99251 m 0,0 v 2.03928 m 0,0 -0.35548,1.99251 m 0,0 -0.72029,1.90832 m 0,0 -1.03835,1.73994 m 0,0 -1.3377,1.53413 m 0,0 -1.59026,1.27222 m 0,0 -1.78671,0.96351 m 0,0 -1.93638,0.62675 m 0,0 -2.01122,0.27128 m 0,0 -2.02993,-0.0935 m 0,0 -1.98315,-0.44902 m 0,0 -1.8709,-0.80449 m 0,0 -1.70252,-1.11318 m 0,0 -1.46865,-1.41253 m 0,0 -1.18803,-1.63704 m 0,0 -0.88867,-1.83348 m 0,0 -0.53321,-1.96445 m 0,0 -0.18709,-2.02057"
     id="path3787"
     inkscape:connector-curvature="0"
     style="fill:none;stroke:#f70000;stroke-width:0.46799999;stroke-miterlimit:4;stroke-dasharray:none;stroke-opacity:1" />
  <path
     d="m 26.697881,38.02618 0.177735,-2.02057 m 0,0 0.542561,-1.96444 m 0,0 0.879323,-1.83349 m 0,0 1.197376,-1.64639 m 0,0 1.468657,-1.40317 m 0,0 1.693164,-1.11319 m 0,0 1.8709,-0.80449 m 0,0 1.983154,-0.44901 m 0,0 2.029927,-0.0935 m 0,0 2.01122,0.27128 m 0,0 1.93638,0.62675 m 0,0 1.796059,0.96352 m 0,0 1.58091,1.27221 m 0,0 1.337698,1.53414 m 0,0 1.0477,1.73994 m 0,0 0.71094,1.90831 m 0,0 0.36483,1.99251 m 0,0 v 2.03928 m 0,0 -0.36483,1.99251 m 0,0 -0.71094,1.90832 m 0,0 -1.0477,1.73994 m 0,0 -1.337698,1.53413 m 0,0 -1.58091,1.27222 m 0,0 -1.796059,0.96351 m 0,0 -1.93638,0.62675 m 0,0 -2.01122,0.27128 m 0,0 -2.029927,-0.0935 m 0,0 -1.983154,-0.44902 m 0,0 -1.8709,-0.80449 m 0,0 -1.693164,-1.11318 m 0,0 -1.468657,-1.41253 m 0,0 -1.197376,-1.63704 m 0,0 -0.879323,-1.83348 m 0,0 -0.542561,-1.96445 m 0,0 -0.177735,-2.02057"
     id="path3789"
     inkscape:connector-curvature="0"
     style="fill:none;stroke:#f70000;stroke-width:0.46799999;stroke-miterlimit:4;stroke-dasharray:none;stroke-opacity:1" />
  <path
     d="m 26.697881,415.9854 0.177735,-2.0206 m 0,0 0.542561,-1.9644 m 0,0 0.879323,-1.8335 m 0,0 1.197376,-1.637 m 0,0 1.468657,-1.4126 m 0,0 1.693164,-1.1132 m 0,0 1.8709,-0.8044 m 0,0 1.983154,-0.4491 m 0,0 2.029927,-0.094 m 0,0 2.01122,0.2713 m 0,0 1.93638,0.6268 m 0,0 1.796059,0.9635 m 0,0 1.58091,1.2722 m 0,0 1.337698,1.5341 m 0,0 1.0477,1.74 m 0,0 0.71094,1.9083 m 0,0 0.36483,1.9925 m 0,0 v 2.0393 m 0,0 -0.36483,1.9925 m 0,0 -0.71094,1.9083 m 0,0 -1.0477,1.7399 m 0,0 -1.337698,1.5342 m 0,0 -1.58091,1.2722 m 0,0 -1.796059,0.9635 m 0,0 -1.93638,0.6268 m 0,0 -2.01122,0.2712 m 0,0 -2.029927,-0.093 m 0,0 -1.983154,-0.449 m 0,0 -1.8709,-0.8045 m 0,0 -1.693164,-1.1131 m 0,0 -1.468657,-1.4032 m 0,0 -1.197376,-1.6464 m 0,0 -0.879323,-1.8335 m 0,0 -0.542561,-1.9644 m 0,0 -0.177735,-2.0206"
     id="path3791"
     inkscape:connector-curvature="0"
     style="fill:none;stroke:#f70000;stroke-width:0.46799999;stroke-miterlimit:4;stroke-dasharray:none;stroke-opacity:1" />
  <path
     d="m 329.06338,415.9854 0.17773,-2.0206 m 0,0 0.54256,-1.9644 m 0,0 0.87933,-1.8335 m 0,0 1.19737,-1.637 m 0,0 1.46866,-1.4126 m 0,0 1.70252,-1.1132 m 0,0 1.86154,-0.8044 m 0,0 1.98316,-0.4491 m 0,0 2.02992,-0.094 m 0,0 2.02058,0.2713 m 0,0 1.92702,0.6268 m 0,0 1.79607,0.9635 m 0,0 1.59026,1.2722 m 0,0 1.33769,1.5341 m 0,0 1.03835,1.74 m 0,0 0.71095,1.9083 m 0,0 0.36482,1.9925 m 0,0 v 2.0393 m 0,0 -0.36482,1.9925 m 0,0 -0.71095,1.9083 m 0,0 -1.03835,1.7399 m 0,0 -1.33769,1.5342 m 0,0 -1.59026,1.2722 m 0,0 -1.79607,0.9635 m 0,0 -1.92702,0.6268 m 0,0 -2.02058,0.2712 m 0,0 -2.02992,-0.093 m 0,0 -1.98316,-0.449 m 0,0 -1.86154,-0.8045 m 0,0 -1.70252,-1.1131 m 0,0 -1.46866,-1.4032 m 0,0 -1.19737,-1.6464 m 0,0 -0.87933,-1.8335 m 0,0 -0.54256,-1.9644 m 0,0 -0.17773,-2.0206"
     id="path3793"
     inkscape:connector-curvature="0"
     style="fill:none;stroke:#f70000;stroke-width:0.46799999;stroke-miterlimit:4;stroke-dasharray:none;stroke-opacity:1" />
  <path
     d="m 631.42888,415.9854 0.18709,-2.0206 m 0,0 0.53321,-1.9644 m 0,0 0.88867,-1.8335 m 0,0 1.18803,-1.637 m 0,0 1.46865,-1.4126 m 0,0 1.70252,-1.1132 m 0,0 1.8709,-0.8044 m 0,0 1.98315,-0.4491 m 0,0 2.02993,-0.094 m 0,0 2.01122,0.2713 m 0,0 1.93638,0.6268 m 0,0 1.78671,0.9635 m 0,0 1.59026,1.2722 m 0,0 1.3377,1.5341 m 0,0 1.03835,1.74 m 0,0 0.72029,1.9083 m 0,0 0.35548,1.9925 m 0,0 v 2.0393 m 0,0 -0.35548,1.9925 m 0,0 -0.72029,1.9083 m 0,0 -1.03835,1.7399 m 0,0 -1.3377,1.5342 m 0,0 -1.59026,1.2722 m 0,0 -1.78671,0.9635 m 0,0 -1.93638,0.6268 m 0,0 -2.01122,0.2712 m 0,0 -2.02993,-0.093 m 0,0 -1.98315,-0.449 m 0,0 -1.8709,-0.8045 m 0,0 -1.70252,-1.1131 m 0,0 -1.46865,-1.4032 m 0,0 -1.18803,-1.6464 m 0,0 -0.88867,-1.8335 m 0,0 -0.53321,-1.9644 m 0,0 -0.18709,-2.0206"
     id="path3795"
     inkscape:connector-curvature="0"
     style="fill:none;stroke:#f70000;stroke-width:0.46799999;stroke-miterlimit:4;stroke-dasharray:none;stroke-opacity:1" />
  <path
     d="m 196.77204,38.02618 0.18709,-2.02057 m 0,0 0.54256,-1.96444 m 0,0 0.87932,-1.83349 m 0,0 1.19738,-1.64639 m 0,0 1.46865,-1.40317 m 0,0 1.69317,-1.11319 m 0,0 1.8709,-0.80449 m 0,0 1.98315,-0.44901 m 0,0 2.02993,-0.0935 m 0,0 2.01122,0.27128 m 0,0 1.93638,0.62675 m 0,0 1.78671,0.96352 m 0,0 1.59026,1.27221 m 0,0 1.3377,1.53414 m 0,0 1.0477,1.73994 m 0,0 0.71094,1.90831 m 0,0 0.36483,1.99251 m 0,0 v 2.03928 m 0,0 -0.36483,1.99251 m 0,0 -0.71094,1.90832 m 0,0 -1.0477,1.73994 m 0,0 -1.3377,1.53413 m 0,0 -1.59026,1.27222 m 0,0 -1.78671,0.96351 m 0,0 -1.93638,0.62675 m 0,0 -2.01122,0.27128 m 0,0 -2.02993,-0.0935 m 0,0 -1.98315,-0.44902 m 0,0 -1.8709,-0.80449 m 0,0 -1.69317,-1.11318 m 0,0 -1.46865,-1.41253 m 0,0 -1.19738,-1.63704 m 0,0 -0.87932,-1.83348 m 0,0 -0.54256,-1.96445 m 0,0 -0.18709,-2.02057"
     id="path3801"
     inkscape:connector-curvature="0"
     style="fill:none;stroke:#f70000;stroke-width:0.46799999;stroke-miterlimit:4;stroke-dasharray:none;stroke-opacity:1" />
  <path
     d="m 461.34536,38.02618 0.18709,-2.02057 m 0,0 0.54256,-1.96444 m 0,0 0.87932,-1.83349 m 0,0 1.19738,-1.64639 m 0,0 1.46866,-1.40317 m 0,0 1.69316,-1.11319 m 0,0 1.8709,-0.80449 m 0,0 1.98316,-0.44901 m 0,0 2.02992,-0.0935 m 0,0 2.01122,0.27128 m 0,0 1.93638,0.62675 m 0,0 1.78671,0.96352 m 0,0 1.59027,1.27221 m 0,0 1.33769,1.53414 m 0,0 1.03835,1.73994 m 0,0 0.7203,1.90831 m 0,0 0.36482,1.99251 m 0,0 v 2.03928 m 0,0 -0.36482,1.99251 m 0,0 -0.7203,1.90832 m 0,0 -1.03835,1.73994 m 0,0 -1.33769,1.53413 m 0,0 -1.59027,1.27222 m 0,0 -1.78671,0.96351 m 0,0 -1.93638,0.62675 m 0,0 -2.01122,0.27128 m 0,0 -2.02992,-0.0935 m 0,0 -1.98316,-0.44902 m 0,0 -1.8709,-0.80449 m 0,0 -1.69316,-1.11318 m 0,0 -1.46866,-1.41253 m 0,0 -1.19738,-1.63704 m 0,0 -0.87932,-1.83348 m 0,0 -0.54256,-1.96445 m 0,0 -0.18709,-2.02057"
     id="path3803"
     inkscape:connector-curvature="0"
     style="fill:none;stroke:#f70000;stroke-width:0.46799999;stroke-miterlimit:4;stroke-dasharray:none;stroke-opacity:1" />
</svg>
