<?xml version="1.0" encoding="UTF-8" standalone="no"?>
<svg
   xmlns:dc="http://purl.org/dc/elements/1.1/"
   xmlns:cc="http://creativecommons.org/ns#"
   xmlns:rdf="http://www.w3.org/1999/02/22-rdf-syntax-ns#"
   xmlns:svg="http://www.w3.org/2000/svg"
   xmlns="http://www.w3.org/2000/svg"
   xmlns:sodipodi="http://sodipodi.sourceforge.net/DTD/sodipodi-0.dtd"
   xmlns:inkscape="http://www.inkscape.org/namespaces/inkscape"
   width="680.80182"
   height="454.01129"
   viewBox="0 0 680.80182 454.01129"
   version="1.1"
   id="svg42"
   sodipodi:docname="connector_mount.svg"
   inkscape:version="0.92.4 (5da689c313, 2019-01-14)">
  <metadata
     id="metadata48">
    <rdf:RDF>
      <cc:Work
         rdf:about="">
        <dc:format>image/svg+xml</dc:format>
        <dc:type
           rdf:resource="http://purl.org/dc/dcmitype/StillImage" />
      </cc:Work>
    </rdf:RDF>
  </metadata>
  <defs
     id="defs46" />
  <sodipodi:namedview
     pagecolor="#ffffff"
     bordercolor="#666666"
     borderopacity="1"
     objecttolerance="10"
     gridtolerance="10"
     guidetolerance="10"
     inkscape:pageopacity="0"
     inkscape:pageshadow="2"
     inkscape:window-width="1920"
     inkscape:window-height="986"
     id="namedview44"
     showgrid="false"
     inkscape:zoom="0.78666667"
     inkscape:cx="417.122"
     inkscape:cy="145.7877"
     inkscape:window-x="-11"
     inkscape:window-y="-11"
     inkscape:window-maximized="1"
     inkscape:current-layer="svg42" />
  <title
     id="title2">Produce by Acme CAD Converter</title>
  <desc
     id="desc4">Produce by Acme CAD Converter</desc>
  <path
     d="M 680.56794,0.2338625 H 0.2338625 m 0,0 V 453.77744 m 0,0 H 680.56794 m 0,0 V 0.2338625"
     id="path6"
     inkscape:connector-curvature="0"
     style="opacity:0.98999999;fill:none;stroke:#ff0000;stroke-width:0.46772501;stroke-opacity:1" />
  <path
     d="m 26.697744,415.98526 0.177735,-2.02057 m 0,0 0.542561,-1.96445 m 0,0 0.879323,-1.83348 m 0,0 1.197376,-1.63704 m 0,0 1.468657,-1.41253 m 0,0 1.693164,-1.11318 m 0,0 1.8709,-0.80449 m 0,0 1.983154,-0.44902 m 0,0 2.029927,-0.0935 m 0,0 2.01122,0.27128 m 0,0 1.93638,0.62675 m 0,0 1.79606,0.96351 m 0,0 1.58091,1.27222 m 0,0 1.3377,1.53413 m 0,0 1.0477,1.73994 m 0,0 0.71094,1.90832 m 0,0 0.36483,1.99251 m 0,0 v 2.03928 m 0,0 -0.36483,1.99251 m 0,0 -0.71094,1.90832 m 0,0 -1.0477,1.73993 m 0,0 -1.3377,1.53414 m 0,0 -1.58091,1.27221 m 0,0 -1.79606,0.96352 m 0,0 -1.93638,0.62675 m 0,0 -2.01122,0.27128 m 0,0 -2.029927,-0.0935 m 0,0 -1.983154,-0.44901 m 0,0 -1.8709,-0.80449 m 0,0 -1.693164,-1.11318 m 0,0 -1.468657,-1.40318 m 0,0 -1.197376,-1.64639 m 0,0 -0.879323,-1.83348 m 0,0 -0.542561,-1.96445 m 0,0 -0.177735,-2.02057"
     id="path16"
     inkscape:connector-curvature="0"
     style="opacity:0.98999999;fill:none;stroke:#ff0000;stroke-width:0.46772501;stroke-opacity:1" />
  <path
     d="m 631.42875,38.026042 0.18709,-2.02057 m 0,0 0.53321,-1.96445 m 0,0 0.88867,-1.83348 m 0,0 1.18803,-1.64639 m 0,0 1.46865,-1.40318 m 0,0 1.70252,-1.11318 m 0,0 1.8709,-0.80449 m 0,0 1.98315,-0.449014 m 0,0 2.02993,-0.09354 m 0,0 2.01122,0.271281 m 0,0 1.93638,0.626753 m 0,0 1.78671,0.96352 m 0,0 1.59026,1.27221 m 0,0 1.3377,1.53413 m 0,0 1.03835,1.73994 m 0,0 0.72029,1.90832 m 0,0 0.35548,1.9925 m 0,0 v 2.03929 m 0,0 -0.35548,1.99251 m 0,0 -0.72029,1.90832 m 0,0 -1.03835,1.73993 m 0,0 -1.3377,1.53413 m 0,0 -1.59026,1.27221 m 0,0 -1.78671,0.96353 m 0,0 -1.93638,0.62675 m 0,0 -2.01122,0.27128 m 0,0 -2.02993,-0.0935 m 0,0 -1.98315,-0.44903 m 0,0 -1.8709,-0.80449 m 0,0 -1.70252,-1.11318 m 0,0 -1.46865,-1.41253 m 0,0 -1.18803,-1.63704 m 0,0 -0.88867,-1.83348 m 0,0 -0.53321,-1.96445 m 0,0 -0.18709,-2.02057"
     id="path18"
     inkscape:connector-curvature="0"
     style="opacity:0.98999999;fill:none;stroke:#ff0000;stroke-width:0.46772501;stroke-opacity:1" />
  <path
     d="m 329.06325,415.98526 0.17773,-2.02057 m 0,0 0.54256,-1.96445 m 0,0 0.87933,-1.83348 m 0,0 1.19737,-1.63704 m 0,0 1.46866,-1.41253 m 0,0 1.70252,-1.11318 m 0,0 1.86154,-0.80449 m 0,0 1.98316,-0.44902 m 0,0 2.02992,-0.0935 m 0,0 2.02058,0.27128 m 0,0 1.92702,0.62675 m 0,0 1.79607,0.96351 m 0,0 1.59026,1.27222 m 0,0 1.33769,1.53413 m 0,0 1.03835,1.73994 m 0,0 0.71095,1.90832 m 0,0 0.36482,1.99251 m 0,0 v 2.03928 m 0,0 -0.36482,1.99251 m 0,0 -0.71095,1.90832 m 0,0 -1.03835,1.73993 m 0,0 -1.33769,1.53414 m 0,0 -1.59026,1.27221 m 0,0 -1.79607,0.96352 m 0,0 -1.92702,0.62675 m 0,0 -2.02058,0.27128 m 0,0 -2.02992,-0.0935 m 0,0 -1.98316,-0.44901 m 0,0 -1.86154,-0.80449 m 0,0 -1.70252,-1.11318 m 0,0 -1.46866,-1.40318 m 0,0 -1.19737,-1.64639 m 0,0 -0.87933,-1.83348 m 0,0 -0.54256,-1.96445 m 0,0 -0.17773,-2.02057"
     id="path20"
     inkscape:connector-curvature="0"
     style="opacity:0.98999999;fill:none;stroke:#ff0000;stroke-width:0.46772501;stroke-opacity:1" />
  <path
     d="m 631.42875,415.98526 0.18709,-2.02057 m 0,0 0.53321,-1.96445 m 0,0 0.88867,-1.83348 m 0,0 1.18803,-1.63704 m 0,0 1.46865,-1.41253 m 0,0 1.70252,-1.11318 m 0,0 1.8709,-0.80449 m 0,0 1.98315,-0.44902 m 0,0 2.02993,-0.0935 m 0,0 2.01122,0.27128 m 0,0 1.93638,0.62675 m 0,0 1.78671,0.96351 m 0,0 1.59026,1.27222 m 0,0 1.3377,1.53413 m 0,0 1.03835,1.73994 m 0,0 0.72029,1.90832 m 0,0 0.35548,1.99251 m 0,0 v 2.03928 m 0,0 -0.35548,1.99251 m 0,0 -0.72029,1.90832 m 0,0 -1.03835,1.73993 m 0,0 -1.3377,1.53414 m 0,0 -1.59026,1.27221 m 0,0 -1.78671,0.96352 m 0,0 -1.93638,0.62675 m 0,0 -2.01122,0.27128 m 0,0 -2.02993,-0.0935 m 0,0 -1.98315,-0.44901 m 0,0 -1.8709,-0.80449 m 0,0 -1.70252,-1.11318 m 0,0 -1.46865,-1.40318 m 0,0 -1.18803,-1.64639 m 0,0 -0.88867,-1.83348 m 0,0 -0.53321,-1.96445 m 0,0 -0.18709,-2.02057"
     id="path22"
     inkscape:connector-curvature="0"
     style="opacity:0.98999999;fill:none;stroke:#ff0000;stroke-width:0.46772501;stroke-opacity:1" />
  <path
     d="m 26.697744,38.026042 0.177735,-2.02057 m 0,0 0.542561,-1.96445 m 0,0 0.879323,-1.83348 m 0,0 1.197376,-1.64639 m 0,0 1.468657,-1.40318 m 0,0 1.693164,-1.11318 m 0,0 1.8709,-0.80449 m 0,0 1.983154,-0.449014 m 0,0 2.029927,-0.09354 m 0,0 2.01122,0.271281 m 0,0 1.93638,0.626753 m 0,0 1.79606,0.96352 m 0,0 1.58091,1.27221 m 0,0 1.3377,1.53413 m 0,0 1.0477,1.73994 m 0,0 0.71094,1.90832 m 0,0 0.36483,1.9925 m 0,0 v 2.03929 m 0,0 -0.36483,1.99251 m 0,0 -0.71094,1.90832 m 0,0 -1.0477,1.73993 m 0,0 -1.3377,1.53413 m 0,0 -1.58091,1.27221 m 0,0 -1.79606,0.96353 m 0,0 -1.93638,0.62675 m 0,0 -2.01122,0.27128 m 0,0 -2.029927,-0.0935 m 0,0 -1.983154,-0.44903 m 0,0 -1.8709,-0.80449 m 0,0 -1.693164,-1.11318 m 0,0 -1.468657,-1.41253 m 0,0 -1.197376,-1.63704 m 0,0 -0.879323,-1.83348 m 0,0 -0.542561,-1.96445 m 0,0 -0.177735,-2.02057"
     id="path24"
     inkscape:connector-curvature="0"
     style="opacity:0.98999999;fill:none;stroke:#ff0000;stroke-width:0.46772501;stroke-opacity:1" />
  <path
     d="m 196.77191,38.026042 0.18709,-2.02057 m 0,0 0.54256,-1.96445 m 0,0 0.87932,-1.83348 m 0,0 1.19738,-1.64639 m 0,0 1.46865,-1.40318 m 0,0 1.69317,-1.11318 m 0,0 1.8709,-0.80449 m 0,0 1.98315,-0.449014 m 0,0 2.02993,-0.09354 m 0,0 2.01122,0.271281 m 0,0 1.93638,0.626753 m 0,0 1.78671,0.96352 m 0,0 1.59026,1.27221 m 0,0 1.3377,1.53413 m 0,0 1.0477,1.73994 m 0,0 0.71094,1.90832 m 0,0 0.36483,1.9925 m 0,0 v 2.03929 m 0,0 -0.36483,1.99251 m 0,0 -0.71094,1.90832 m 0,0 -1.0477,1.73993 m 0,0 -1.3377,1.53413 m 0,0 -1.59026,1.27221 m 0,0 -1.78671,0.96353 m 0,0 -1.93638,0.62675 m 0,0 -2.01122,0.27128 m 0,0 -2.02993,-0.0935 m 0,0 -1.98315,-0.44903 m 0,0 -1.8709,-0.80449 m 0,0 -1.69317,-1.11318 m 0,0 -1.46865,-1.41253 m 0,0 -1.19738,-1.63704 m 0,0 -0.87932,-1.83348 m 0,0 -0.54256,-1.96445 m 0,0 -0.18709,-2.02057"
     id="path30"
     inkscape:connector-curvature="0"
     style="opacity:0.98999999;fill:none;stroke:#ff0000;stroke-width:0.46772501;stroke-opacity:1" />
  <path
     d="m 461.34523,38.026042 0.18709,-2.02057 m 0,0 0.54256,-1.96445 m 0,0 0.87932,-1.83348 m 0,0 1.19738,-1.64639 m 0,0 1.46866,-1.40318 m 0,0 1.69316,-1.11318 m 0,0 1.8709,-0.80449 m 0,0 1.98316,-0.449014 m 0,0 2.02992,-0.09354 m 0,0 2.01122,0.271281 m 0,0 1.93638,0.626753 m 0,0 1.78671,0.96352 m 0,0 1.59027,1.27221 m 0,0 1.33769,1.53413 m 0,0 1.03835,1.73994 m 0,0 0.7203,1.90832 m 0,0 0.36482,1.9925 m 0,0 v 2.03929 m 0,0 -0.36482,1.99251 m 0,0 -0.7203,1.90832 m 0,0 -1.03835,1.73993 m 0,0 -1.33769,1.53413 m 0,0 -1.59027,1.27221 m 0,0 -1.78671,0.96353 m 0,0 -1.93638,0.62675 m 0,0 -2.01122,0.27128 m 0,0 -2.02992,-0.0935 m 0,0 -1.98316,-0.44903 m 0,0 -1.8709,-0.80449 m 0,0 -1.69316,-1.11318 m 0,0 -1.46866,-1.41253 m 0,0 -1.19738,-1.63704 m 0,0 -0.87932,-1.83348 m 0,0 -0.54256,-1.96445 m 0,0 -0.18709,-2.02057"
     id="path32"
     inkscape:connector-curvature="0"
     style="opacity:0.98999999;fill:none;stroke:#ff0000;stroke-width:0.46772501;stroke-opacity:1" />
  <path
     d="m 332.27184,141.96389 0.17774,-1.69316 m 0,0 0.52385,-1.60898 m 0,0 0.85126,-1.47801 m 0,0 1.14125,-1.2535 m 0,0 1.37511,-1.00093 m 0,0 1.55284,-0.69224 m 0,0 1.65575,-0.35547 m 0,0 h 1.70252 m 0,0 1.65575,0.35547 m 0,0 1.55284,0.69224 m 0,0 1.37511,1.00093 m 0,0 1.14125,1.2535 m 0,0 0.85126,1.47801 m 0,0 0.52386,1.60898 m 0,0 0.17773,1.69316 m 0,0 -0.17773,1.69316 m 0,0 -0.52386,1.60898 m 0,0 -0.85126,1.47801 m 0,0 -1.14125,1.26286 m 0,0 -1.37511,0.99157 m 0,0 -1.55284,0.69224 m 0,0 -1.65575,0.35547 m 0,0 h -1.70252 m 0,0 -1.65575,-0.35547 m 0,0 -1.55284,-0.69224 m 0,0 -1.37511,-0.99157 m 0,0 -1.14125,-1.26286 m 0,0 -0.85126,-1.47801 m 0,0 -0.52385,-1.60898 m 0,0 -0.17774,-1.69316"
     id="path34"
     inkscape:connector-curvature="0"
     style="opacity:0.98999999;fill:none;stroke:#ff0000;stroke-width:0.46772501;stroke-opacity:1" />
  <path
     d="m 332.27184,330.9435 0.17774,-1.68381 m 0,0 0.52385,-1.61833 m 0,0 0.85126,-1.46866 m 0,0 1.14125,-1.26285 m 0,0 1.37511,-1.00093 m 0,0 1.55284,-0.69224 m 0,0 1.65575,-0.35547 m 0,0 h 1.70252 m 0,0 1.65575,0.35547 m 0,0 1.55284,0.69224 m 0,0 1.37511,1.00093 m 0,0 1.14125,1.26285 m 0,0 0.85126,1.46866 m 0,0 0.52386,1.61833 m 0,0 0.17773,1.68381 m 0,0 -0.17773,1.69316 m 0,0 -0.52386,1.60898 m 0,0 -0.85126,1.47801 m 0,0 -1.14125,1.26286 m 0,0 -1.37511,0.99157 m 0,0 -1.55284,0.69224 m 0,0 -1.65575,0.35547 m 0,0 h -1.70252 m 0,0 -1.65575,-0.35547 m 0,0 -1.55284,-0.69224 m 0,0 -1.37511,-0.99157 m 0,0 -1.14125,-1.26286 m 0,0 -0.85126,-1.47801 m 0,0 -0.52385,-1.60898 m 0,0 -0.17774,-1.69316"
     id="path36"
     inkscape:connector-curvature="0"
     style="opacity:0.98999999;fill:none;stroke:#ff0000;stroke-width:0.46772501;stroke-opacity:1" />
  <path
     d="m 472.12161,227.00565 0.17774,-1.69316 m 0,0 0.52385,-1.60898 m 0,0 0.85126,-1.47801 m 0,0 1.1319,-1.26286 m 0,0 1.37511,-0.99157 m 0,0 1.55284,-0.69224 m 0,0 1.66511,-0.35547 m 0,0 h 1.69316 m 0,0 1.6651,0.35547 m 0,0 1.55285,0.69224 m 0,0 1.37511,0.99157 m 0,0 1.13189,1.26286 m 0,0 0.85126,1.47801 m 0,0 0.52386,1.60898 m 0,0 0.17773,1.69316 m 0,0 -0.17773,1.69316 m 0,0 -0.52386,1.60898 m 0,0 -0.85126,1.47801 m 0,0 -1.13189,1.26286 m 0,0 -1.37511,0.99157 m 0,0 -1.55285,0.69224 m 0,0 -1.6651,0.35547 m 0,0 h -1.69316 m 0,0 -1.66511,-0.35547 m 0,0 -1.55284,-0.69224 m 0,0 -1.37511,-0.99157 m 0,0 -1.1319,-1.26286 m 0,0 -0.85126,-1.47801 m 0,0 -0.52385,-1.60898 m 0,0 -0.17774,-1.69316"
     id="path38"
     inkscape:connector-curvature="0"
     style="opacity:0.98999999;fill:none;stroke:#ff0000;stroke-width:0.46772501;stroke-opacity:1" />
  <path
     d="m 192.43142,227.00565 0.17773,-1.69316 m 0,0 0.52386,-1.60898 m 0,0 0.85126,-1.47801 m 0,0 1.13189,-1.26286 m 0,0 1.37511,-0.99157 m 0,0 1.55285,-0.69224 m 0,0 1.6651,-0.35547 m 0,0 h 1.69316 m 0,0 1.66511,0.35547 m 0,0 1.55284,0.69224 m 0,0 1.37511,0.99157 m 0,0 1.1319,1.26286 m 0,0 0.85126,1.47801 m 0,0 0.52385,1.60898 m 0,0 0.17774,1.69316 m 0,0 -0.17774,1.69316 m 0,0 -0.52385,1.60898 m 0,0 -0.85126,1.47801 m 0,0 -1.1319,1.26286 m 0,0 -1.37511,0.99157 m 0,0 -1.55284,0.69224 m 0,0 -1.66511,0.35547 m 0,0 h -1.69316 m 0,0 -1.6651,-0.35547 m 0,0 -1.55285,-0.69224 m 0,0 -1.37511,-0.99157 m 0,0 -1.13189,-1.26286 m 0,0 -0.85126,-1.47801 m 0,0 -0.52386,-1.60898 m 0,0 -0.17773,-1.69316"
     id="path40"
     inkscape:connector-curvature="0"
     style="opacity:0.98999999;fill:none;stroke:#ff0000;stroke-width:0.46772501;stroke-opacity:1" />
</svg>
