<?xml version="1.0" encoding="UTF-8" standalone="no"?>
<svg
   xmlns:dc="http://purl.org/dc/elements/1.1/"
   xmlns:cc="http://creativecommons.org/ns#"
   xmlns:rdf="http://www.w3.org/1999/02/22-rdf-syntax-ns#"
   xmlns:svg="http://www.w3.org/2000/svg"
   xmlns="http://www.w3.org/2000/svg"
   xmlns:sodipodi="http://sodipodi.sourceforge.net/DTD/sodipodi-0.dtd"
   xmlns:inkscape="http://www.inkscape.org/namespaces/inkscape"
   width="180.12881mm"
   height="120.12383mm"
   viewBox="0 0 680.80183 454.01131"
   version="1.1"
   id="svg3805"
   sodipodi:docname="top.svg"
   inkscape:version="0.92.4 (5da689c313, 2019-01-14)">
  <metadata
     id="metadata3811">
    <rdf:RDF>
      <cc:Work
         rdf:about="">
        <dc:format>image/svg+xml</dc:format>
        <dc:type
           rdf:resource="http://purl.org/dc/dcmitype/StillImage" />
        <dc:title>Produce by Acme CAD Converter</dc:title>
      </cc:Work>
    </rdf:RDF>
  </metadata>
  <defs
     id="defs3809" />
  <sodipodi:namedview
     pagecolor="#ffffff"
     bordercolor="#666666"
     borderopacity="1"
     objecttolerance="10"
     gridtolerance="10"
     guidetolerance="10"
     inkscape:pageopacity="0"
     inkscape:pageshadow="2"
     inkscape:window-width="1920"
     inkscape:window-height="986"
     id="namedview3807"
     showgrid="false"
     units="mm"
     inkscape:zoom="0.89920412"
     inkscape:cx="200.6949"
     inkscape:cy="219.3384"
     inkscape:window-x="-11"
     inkscape:window-y="-11"
     inkscape:window-maximized="1"
     inkscape:current-layer="svg3805" />
  <title
     id="title3763">Produce by Acme CAD Converter</title>
  <desc
     id="desc3765">Produce by Acme CAD Converter</desc>
  <path
     inkscape:connector-curvature="0"
     style="fill:none;stroke:#fd0000;stroke-width:0.46772501;stroke-opacity:1"
     d="M 680.56795,0.2338625 H 0.2338625 m 0,0 V 453.77744 m 0,0 H 680.56795 m 0,0 V 0.2338625"
     id="path6" />
  <path
     inkscape:connector-curvature="0"
     style="fill:none;stroke:#fd0000;stroke-width:0.46772501;stroke-opacity:1"
     d="m 26.697744,415.98526 0.177735,-2.02057 m 0,0 0.542561,-1.96445 m 0,0 0.879323,-1.83348 m 0,0 1.197376,-1.63704 m 0,0 1.468657,-1.41253 m 0,0 1.693164,-1.11318 m 0,0 1.870896,-0.80449 m 0,0 1.98316,-0.44902 m 0,0 2.02992,-0.0935 m 0,0 2.01122,0.27128 m 0,0 1.93638,0.62675 m 0,0 1.79607,0.96352 m 0,0 1.58091,1.27221 m 0,0 1.33769,1.53414 m 0,0 1.04771,1.73993 m 0,0 0.71094,1.90832 m 0,0 0.36482,1.99251 m 0,0 v 2.03928 m 0,0 -0.36482,1.99251 m 0,0 -0.71094,1.90832 m 0,0 -1.04771,1.73993 m 0,0 -1.33769,1.53414 m 0,0 -1.58091,1.27221 m 0,0 -1.79607,0.96352 m 0,0 -1.93638,0.62675 m 0,0 -2.01122,0.27128 m 0,0 -2.02992,-0.0935 m 0,0 -1.98316,-0.44901 m 0,0 -1.870896,-0.80449 m 0,0 -1.693164,-1.11318 m 0,0 -1.468657,-1.40318 m 0,0 -1.197376,-1.64639 m 0,0 -0.879323,-1.83348 m 0,0 -0.542561,-1.96445 m 0,0 -0.177735,-2.02057"
     id="path16" />
  <path
     inkscape:connector-curvature="0"
     style="fill:none;stroke:#fd0000;stroke-width:0.46772501;stroke-opacity:1"
     d="m 631.42876,38.026038 0.18709,-2.02057 m 0,0 0.53321,-1.96444 m 0,0 0.88867,-1.83348 m 0,0 1.18802,-1.6464 m 0,0 1.46866,-1.403171 m 0,0 1.70252,-1.113186 m 0,0 1.8709,-0.804487 m 0,0 1.98315,-0.449016 m 0,0 2.02993,-0.09354 m 0,0 2.01122,0.271281 m 0,0 1.93638,0.626751 m 0,0 1.78671,0.963514 m 0,0 1.59026,1.272214 m 0,0 1.3377,1.53414 m 0,0 1.03835,1.73994 m 0,0 0.72029,1.90832 m 0,0 0.35547,1.9925 m 0,0 v 2.03929 m 0,0 -0.35547,1.9925 m 0,0 -0.72029,1.90832 m 0,0 -1.03835,1.73994 m 0,0 -1.3377,1.53413 m 0,0 -1.59026,1.27222 m 0,0 -1.78671,0.96351 m 0,0 -1.93638,0.62675 m 0,0 -2.01122,0.27128 m 0,0 -2.02993,-0.0935 m 0,0 -1.98315,-0.44902 m 0,0 -1.8709,-0.80449 m 0,0 -1.70252,-1.11318 m 0,0 -1.46866,-1.41253 m 0,0 -1.18802,-1.63704 m 0,0 -0.88867,-1.83348 m 0,0 -0.53321,-1.96444 m 0,0 -0.18709,-2.02058"
     id="path18" />
  <path
     inkscape:connector-curvature="0"
     style="fill:none;stroke:#fd0000;stroke-width:0.46772501;stroke-opacity:1"
     d="m 329.06326,415.98526 0.17773,-2.02057 m 0,0 0.54256,-1.96445 m 0,0 0.87933,-1.83348 m 0,0 1.19737,-1.63704 m 0,0 1.46866,-1.41253 m 0,0 1.70252,-1.11318 m 0,0 1.86154,-0.80449 m 0,0 1.98316,-0.44902 m 0,0 2.02992,-0.0935 m 0,0 2.02057,0.27128 m 0,0 1.92703,0.62675 m 0,0 1.79607,0.96352 m 0,0 1.59026,1.27221 m 0,0 1.33769,1.53414 m 0,0 1.03835,1.73993 m 0,0 0.71095,1.90832 m 0,0 0.36482,1.99251 m 0,0 v 2.03928 m 0,0 -0.36482,1.99251 m 0,0 -0.71095,1.90832 m 0,0 -1.03835,1.73993 m 0,0 -1.33769,1.53414 m 0,0 -1.59026,1.27221 m 0,0 -1.79607,0.96352 m 0,0 -1.92703,0.62675 m 0,0 -2.02057,0.27128 m 0,0 -2.02992,-0.0935 m 0,0 -1.98316,-0.44901 m 0,0 -1.86154,-0.80449 m 0,0 -1.70252,-1.11318 m 0,0 -1.46866,-1.40318 m 0,0 -1.19737,-1.64639 m 0,0 -0.87933,-1.83348 m 0,0 -0.54256,-1.96445 m 0,0 -0.17773,-2.02057"
     id="path20" />
  <path
     inkscape:connector-curvature="0"
     style="fill:none;stroke:#fd0000;stroke-width:0.46772501;stroke-opacity:1"
     d="m 631.42876,415.98526 0.18709,-2.02057 m 0,0 0.53321,-1.96445 m 0,0 0.88867,-1.83348 m 0,0 1.18802,-1.63704 m 0,0 1.46866,-1.41253 m 0,0 1.70252,-1.11318 m 0,0 1.8709,-0.80449 m 0,0 1.98315,-0.44902 m 0,0 2.02993,-0.0935 m 0,0 2.01122,0.27128 m 0,0 1.93638,0.62675 m 0,0 1.78671,0.96352 m 0,0 1.59026,1.27221 m 0,0 1.3377,1.53414 m 0,0 1.03835,1.73993 m 0,0 0.72029,1.90832 m 0,0 0.35547,1.99251 m 0,0 v 2.03928 m 0,0 -0.35547,1.99251 m 0,0 -0.72029,1.90832 m 0,0 -1.03835,1.73993 m 0,0 -1.3377,1.53414 m 0,0 -1.59026,1.27221 m 0,0 -1.78671,0.96352 m 0,0 -1.93638,0.62675 m 0,0 -2.01122,0.27128 m 0,0 -2.02993,-0.0935 m 0,0 -1.98315,-0.44901 m 0,0 -1.8709,-0.80449 m 0,0 -1.70252,-1.11318 m 0,0 -1.46866,-1.40318 m 0,0 -1.18802,-1.64639 m 0,0 -0.88867,-1.83348 m 0,0 -0.53321,-1.96445 m 0,0 -0.18709,-2.02057"
     id="path22" />
  <path
     inkscape:connector-curvature="0"
     style="fill:none;stroke:#fd0000;stroke-width:0.46772501;stroke-opacity:1"
     d="m 26.697744,38.026038 0.177735,-2.02057 m 0,0 0.542561,-1.96444 m 0,0 0.879323,-1.83348 m 0,0 1.197376,-1.6464 m 0,0 1.468657,-1.403171 m 0,0 1.693164,-1.113186 m 0,0 1.870896,-0.804487 m 0,0 1.98316,-0.449016 m 0,0 2.02992,-0.09354 m 0,0 2.01122,0.271281 m 0,0 1.93638,0.626751 m 0,0 1.79607,0.963514 m 0,0 1.58091,1.272214 m 0,0 1.33769,1.53414 m 0,0 1.04771,1.73994 m 0,0 0.71094,1.90832 m 0,0 0.36482,1.9925 m 0,0 v 2.03929 m 0,0 -0.36482,1.9925 m 0,0 -0.71094,1.90832 m 0,0 -1.04771,1.73994 m 0,0 -1.33769,1.53413 m 0,0 -1.58091,1.27222 m 0,0 -1.79607,0.96351 m 0,0 -1.93638,0.62675 m 0,0 -2.01122,0.27128 m 0,0 -2.02992,-0.0935 m 0,0 -1.98316,-0.44902 m 0,0 -1.870896,-0.80449 m 0,0 -1.693164,-1.11318 m 0,0 -1.468657,-1.41253 m 0,0 -1.197376,-1.63704 m 0,0 -0.879323,-1.83348 m 0,0 -0.542561,-1.96444 m 0,0 -0.177735,-2.02058"
     id="path24" />
  <path
     inkscape:connector-curvature="0"
     style="fill:none;stroke:#fd0000;stroke-width:0.46772501;stroke-opacity:1"
     d="m 196.77192,38.026038 0.18709,-2.02057 m 0,0 0.54256,-1.96444 m 0,0 0.87932,-1.83348 m 0,0 1.19738,-1.6464 m 0,0 1.46865,-1.403171 m 0,0 1.69317,-1.113186 m 0,0 1.8709,-0.804487 m 0,0 1.98315,-0.449016 m 0,0 2.02993,-0.09354 m 0,0 2.01122,0.271281 m 0,0 1.93638,0.626751 m 0,0 1.78671,0.963514 m 0,0 1.59026,1.272214 m 0,0 1.3377,1.53414 m 0,0 1.0477,1.73994 m 0,0 0.71094,1.90832 m 0,0 0.36483,1.9925 m 0,0 v 2.03929 m 0,0 -0.36483,1.9925 m 0,0 -0.71094,1.90832 m 0,0 -1.0477,1.73994 m 0,0 -1.3377,1.53413 m 0,0 -1.59026,1.27222 m 0,0 -1.78671,0.96351 m 0,0 -1.93638,0.62675 m 0,0 -2.01122,0.27128 m 0,0 -2.02993,-0.0935 m 0,0 -1.98315,-0.44902 m 0,0 -1.8709,-0.80449 m 0,0 -1.69317,-1.11318 m 0,0 -1.46865,-1.41253 m 0,0 -1.19738,-1.63704 m 0,0 -0.87932,-1.83348 m 0,0 -0.54256,-1.96444 m 0,0 -0.18709,-2.02058"
     id="path30" />
  <path
     inkscape:connector-curvature="0"
     style="fill:none;stroke:#fd0000;stroke-width:0.46772501;stroke-opacity:1"
     d="m 461.34524,38.026038 0.18709,-2.02057 m 0,0 0.54256,-1.96444 m 0,0 0.87932,-1.83348 m 0,0 1.19738,-1.6464 m 0,0 1.46866,-1.403171 m 0,0 1.69316,-1.113186 m 0,0 1.8709,-0.804487 m 0,0 1.98316,-0.449016 m 0,0 2.02992,-0.09354 m 0,0 2.01122,0.271281 m 0,0 1.93638,0.626751 m 0,0 1.78671,0.963514 m 0,0 1.59027,1.272214 m 0,0 1.33769,1.53414 m 0,0 1.03835,1.73994 m 0,0 0.72029,1.90832 m 0,0 0.36483,1.9925 m 0,0 v 2.03929 m 0,0 -0.36483,1.9925 m 0,0 -0.72029,1.90832 m 0,0 -1.03835,1.73994 m 0,0 -1.33769,1.53413 m 0,0 -1.59027,1.27222 m 0,0 -1.78671,0.96351 m 0,0 -1.93638,0.62675 m 0,0 -2.01122,0.27128 m 0,0 -2.02992,-0.0935 m 0,0 -1.98316,-0.44902 m 0,0 -1.8709,-0.80449 m 0,0 -1.69316,-1.11318 m 0,0 -1.46866,-1.41253 m 0,0 -1.19738,-1.63704 m 0,0 -0.87932,-1.83348 m 0,0 -0.54256,-1.96444 m 0,0 -0.18709,-2.02058"
     id="path32" />
</svg>
